<svg id="Untitled-Page_x25_201" xmlns="http://www.w3.org/2000/svg" viewBox="0 0 250 45"><style>.st0{fill:none}.st1{fill:#fff}.st2{fill:#ab0520}.st3{fill:#0c234b}</style><g id="Layer_x25_201"><path class="st1" d="M9.5 0v14.6H11L5 30.4H0V45h49V30.4h-5.1L38 14.6h1.5V0h-30z"/><path class="st2" d="M24.5 5.5l10.5 27s1.3 3.3 3.5 3.3h-7.6s.4.1.8-.6c.2-.4 0-.9 0-.9l-2.4-6h-9.6l-2.4 6s-.2.5 0 .9c.4.6.8.6.8.6h-7.6c2.2 0 3.5-3.3 3.5-3.3l10.5-27z"/><path class="st3" d="M24.5 5.4H34v3.8h-4l10.3 26.5h3.1v3.9H30.6v-3.8H27v7.4h20.2V32.1h-4.5l-7.3-19.3h2.3v-11H11.3v11.1h2.3L6.3 32.1H1.8v11.1H22v-7.4h-3.6v3.8H5.6v-3.9h3.1L19 9.2h-4V5.4h9.5z"/><path class="st1" d="M24.5 25.4h3.7l-3.6-9.5-3.8 9.5h3.7z"/><path class="st3" d="M59.9 45h.9V0h-.9v45zm22.2-15.1v-1.5c-1 1.2-2.5 1.9-4.3 1.9-1 0-2-.2-2.8-.6-.8-.4-1.4-1-1.8-1.8-.1-.3-.2-.5-.3-.8-.1-.3-.1-.6-.2-.9v-7.9c0-.6 0-1.1-.1-1.5-.1-.3-.1-.6-.3-.8-.1-.2-.3-.4-.6-.5h4.2c-.3.1-.5.3-.6.5-.1.2-.2.5-.3.8-.1.4-.1.8-.1 1.5v6.4c0 .7.1 1.3.2 1.7.1.4.3.8.6 1.1.3.4.7.7 1.2.9.5.2 1 .3 1.6.3.7 0 1.3-.1 1.8-.4.6-.3 1-.6 1.3-1.1.2-.2.3-.5.4-.7.1-.2.1-.6.1-1v-7.1c0-.6 0-1.1-.1-1.5s-.1-.6-.3-.8c-.1-.2-.3-.4-.6-.5h4.2c-.3.1-.5.3-.6.5-.1.2-.2.5-.3.8-.1.3-.1.8-.1 1.5v8.8c0 .6 0 1.1.1 1.5.1.3.2.6.3.8.1.2.3.4.6.5h-3.2zm7.3-10.4v1.8c.5-.6 1.1-1.1 1.5-1.3.5-.3 1.1-.4 1.7-.4.4 0 .9.1 1.3.2s.8.3 1.2.6c.3.2.6.5.8.8.2.3.3.7.4 1.1.1.4.1 1 .1 1.9v3.7c0 .7 0 1.2.1 1.4.1.2.3.5.7.8h-3.7c.3-.2.5-.4.6-.5.1-.1.2-.3.2-.6 0-.2.1-.6.1-1.1v-3.5c0-.6 0-1-.1-1.4-.1-.3-.2-.6-.4-.8-.2-.3-.5-.5-.9-.7-.4-.2-.8-.3-1.3-.3-.4 0-.8.1-1.2.3-.4.2-.7.4-.9.7-.2.3-.3.7-.3 1.2v4.4c0 .5 0 .8.1 1.1 0 .2.1.4.2.5.1.1.3.3.6.5h-3.6c.3-.2.5-.4.6-.5.1-.1.2-.3.2-.5v-8c0-.2-.1-.4-.2-.5-.1-.1-.3-.3-.6-.5H88c.7 0 1.2-.2 1.4-.4zm12.2 0v8.3c0 .5 0 .8.1 1.1 0 .2.1.4.2.5.1.1.3.3.6.5h-3.6c.3-.2.5-.4.6-.5.1-.1.2-.3.2-.5v-8c0-.2-.1-.4-.2-.5-.1-.1-.3-.3-.6-.5h1.5c.5 0 .9-.2 1.2-.4zm-1-3.7c.4 0 .7.1.9.4.3.3.4.6.4.9 0 .4-.1.7-.4 1-.3.3-.6.4-1 .4s-.7-.1-1-.4c-.3-.3-.4-.6-.4-1s.1-.7.4-1c.4-.1.7-.3 1.1-.3zm8.8 12.3l2.6-5.8c.3-.6.4-1 .4-1.3 0-.2 0-.4-.1-.6-.1-.1-.3-.3-.6-.5h3.1l-5 10.9c-.6-.4-1.1-.7-1.4-.9-.3-.2-.5-.5-.7-.7-.2-.3-.4-.6-.6-1.1l-2.6-5.9c-.3-.6-.4-1-.6-1.2s-.3-.4-.4-.5c-.2-.1-.5-.3-.9-.6h1.5c.4 0 .7 0 .9-.1.2 0 .4-.2.7-.3 0 .3.1.7.3 1l3.4 7.6zm16-3.4h-8.1c0 .8.2 1.6.6 2.2.4.6.9 1.1 1.5 1.4.7.3 1.4.5 2.3.5.5 0 .9 0 1.3-.1s.8-.2 1.2-.4c.4-.2.8-.4 1.2-.7l-1.2 2.1c-.3.1-.7.2-1 .3-.3.1-.6.1-1 .2-.3 0-.7.1-1.1.1-1.2 0-2.3-.2-3.2-.7-1-.5-1.7-1.1-2.2-1.9-.5-.8-.8-1.7-.8-2.8 0-.5.1-1 .2-1.5s.4-1 .6-1.4c.3-.4.6-.8.9-1.1.5-.4 1-.7 1.6-.9.6-.2 1.3-.3 2-.3s1.4.1 2 .4c.6.2 1.1.6 1.6 1 .4.4.8.9 1 1.5.3.6.4 1.2.4 1.9v.2zm-8-1.4h5.7c-.3-1.6-1.2-2.4-2.8-2.4-.7 0-1.4.2-1.9.6-.5.4-.8 1-1 1.8zm13 6.6h-3.6c.3-.2.5-.4.6-.5.1-.1.2-.3.2-.5v-8c0-.2-.1-.4-.2-.5-.1-.1-.3-.3-.6-.5h1.5c.6 0 1-.1 1.3-.4v1.8c.3-.5.7-1 1.1-1.2.4-.3 1-.4 1.5-.4.2 0 .5 0 .8.1v2c-.2-.2-.6-.4-1-.4s-.8.1-1.1.2c-.3.2-.6.4-.8.7-.3.4-.5 1.1-.5 2v3.6c0 .5 0 .8.1 1.1 0 .2.1.4.2.5 0 0 .2.2.5.4zm10.5-10v1.9c-.9-.6-1.8-.8-2.7-.8-.6 0-1.1.1-1.5.3-.4.2-.6.5-.6.9 0 .2.1.4.2.6.1.2.4.3.7.5.3.1.8.3 1.4.5.8.3 1.4.5 1.8.7.3.2.7.4.9.6.6.5.9 1.2.9 1.9s-.2 1.3-.6 1.8c-.4.5-1 .9-1.7 1.2-.7.3-1.6.4-2.6.4-.6 0-1.1 0-1.5-.1-.4-.1-.9-.2-1.5-.4l-.8-2.2c.6.3 1.1.6 1.5.8.4.2.9.3 1.3.4.4.1.9.1 1.3.1.7 0 1.2-.1 1.7-.4.5-.3.7-.7.7-1.1 0-.4-.2-.8-.5-1-.3-.2-1-.5-2.1-.9-.9-.3-1.5-.6-2-.9-.5-.3-.8-.6-1-.9-.2-.3-.3-.7-.3-1.2 0-.6.2-1.1.5-1.6.3-.4.8-.8 1.5-1 .6-.2 1.4-.3 2.3-.3 1.2-.1 2 0 2.7.2zm5-.4v8.3c0 .5 0 .8.1 1.1 0 .2.1.4.2.5.1.1.3.3.6.5h-3.6c.3-.2.5-.4.6-.5.1-.1.2-.3.2-.5v-8c0-.2-.1-.4-.2-.5-.1-.1-.3-.3-.6-.5h1.5c.5 0 1-.2 1.2-.4zm-1-3.7c.4 0 .7.1.9.4.3.3.4.6.4.9 0 .4-.1.7-.4 1-.3.3-.6.4-1 .4s-.7-.1-1-.4c-.3-.3-.4-.6-.4-1s.1-.7.4-1c.4-.1.7-.3 1.1-.3zm6.1 5.5V26c0 .6 0 1.1.1 1.3.1.3.2.5.3.7.4.5 1 .7 1.7.7.3 0 .6-.1.9-.2l-1.1 1.5c-.3.1-.5.1-.8.1-.9 0-1.6-.3-2.2-1-.2-.2-.4-.5-.5-.7-.1-.2-.2-.5-.2-.9s-.1-.9-.1-1.6v-4.8h-1.5v-.8c.8-.1 1.4-.4 1.8-1 .5-.6.8-1.5.8-2.7v-.3h.9v3.3h1.7c.7 0 1.1 0 1.3-.1v2c-.2-.1-.3-.3-.5-.3-.2-.1-.5-.1-.8-.1H151zm10.2 6.7l2.3-5.8c.2-.5.3-1 .3-1.3 0-.4-.2-.7-.6-1h3.1L161.6 31c-.3.6-.5 1.1-.8 1.5-.2.4-.6.7-.9 1-.4.3-.8.6-1.3.7-.5.2-1 .2-1.6.2-.4 0-.8 0-1.2-.1-.4-.1-.9-.2-1.5-.4l2-1.4c.4.2.8.4 1.2.4.5 0 1-.2 1.5-.6.4-.4.8-1 1.1-1.9l.2-.6c-.3-.3-.4-.4-.5-.6-.1-.1-.2-.2-.3-.4-.1-.1-.2-.4-.3-.7l-2.9-6.3c-.3-.6-.5-1.1-.8-1.3-.2-.3-.5-.5-.9-.6l2.1-.1c.3 0 .6 0 .7.1.1 0 .3.2.5.6l3.3 7.5zm14.4-9.7v9.8c1 .1 2 .2 3 .2.8 0 1.5-.1 2.1-.3.6-.2 1.2-.5 1.9-1.1l-1.2 2.9h-9c.3-.1.5-.3.6-.5.1-.2.2-.5.3-.8.1-.3.1-.8.1-1.5v-8.8c0-.6 0-1.1-.1-1.5-.1-.3-.1-.6-.3-.8-.1-.2-.3-.4-.6-.5h4.2c-.3.1-.5.3-.6.5-.1.2-.2.5-.3.8 0 .5-.1 1-.1 1.6zm10.5 1.2v8.3c0 .5 0 .8.1 1.1 0 .2.1.4.2.5.1.1.3.3.6.5h-3.6c.3-.2.5-.4.6-.5.1-.1.2-.3.2-.5v-8c0-.2-.1-.4-.2-.5-.1-.1-.3-.3-.6-.5h1.5c.5 0 .9-.2 1.2-.4zm-1-3.7c.4 0 .7.1.9.4.3.3.4.6.4.9 0 .4-.1.7-.4 1-.3.3-.6.4-1 .4s-.7-.1-1-.4c-.3-.3-.4-.6-.4-1s.1-.7.4-1c.4-.1.7-.3 1.1-.3zm6.3 5.9l1.2-1.8c.3-.1.5-.2.8-.2.2 0 .5-.1.8-.1.7 0 1.3.1 1.8.4.6.3 1.1.6 1.5 1.1.4.5.8 1 1 1.6.2.6.3 1.3.3 2 0 1.1-.3 2.1-.8 2.9-.5.8-1.3 1.5-2.2 2-1 .5-2 .7-3.3.7-1.7 0-3.1-.1-4.2-.4.3-.2.4-.4.5-.6.1-.2.1-.5.1-1V16.6c0-.2-.1-.4-.2-.5-.1-.1-.3-.3-.6-.5h1.5c.6 0 1-.1 1.3-.4v13.3c.7.2 1.3.3 1.9.3 1.1 0 2.1-.3 2.7-1 .7-.7 1-1.5 1-2.7 0-.8-.1-1.4-.4-2-.3-.6-.7-1-1.1-1.4-.5-.3-1.1-.5-1.7-.5-.3 0-.6 0-.9.1-.3.1-.6.2-1 .4zm12.3 8.2h-3.6c.3-.2.5-.4.6-.5.1-.1.2-.3.2-.5v-8c0-.2-.1-.4-.2-.5-.1-.1-.3-.3-.6-.5h1.5c.6 0 1-.1 1.3-.4v1.8c.3-.5.7-1 1.1-1.2.4-.3 1-.4 1.5-.4.2 0 .5 0 .8.1v2c-.2-.2-.6-.4-1-.4s-.8.1-1.1.2c-.3.2-.6.4-.8.7-.3.4-.5 1.1-.5 2v3.6c0 .5 0 .8.1 1.1 0 .2.1.4.2.5 0 0 .2.2.5.4zm9.4-2.6v-2.8c-.3.1-.5.2-.7.3-.2.1-.4.1-.6.2-.2.1-.7.2-1.5.4-1.1.3-1.6.8-1.6 1.7 0 .6.2 1 .6 1.3.4.3 1 .5 1.7.5.5 0 1-.1 1.6-.3l-1.3 1.6c-.4.1-.8.1-1.2.1-1.1 0-2-.3-2.6-.8-.7-.7-1.1-1.5-1.1-2.4 0-.5.1-.9.3-1.3.2-.4.5-.7.9-.9.5-.3 1.5-.6 2.9-.8 1-.2 1.7-.4 2-.6.3-.2.5-.5.5-.9 0-.3-.1-.5-.3-.7-.2-.2-.4-.4-.7-.5-.3-.1-.7-.2-1.1-.2-.5 0-.9.1-1.3.2s-1 .3-1.7.7l1.5-2.2c.5-.1 1-.1 1.5-.1 1.9 0 3.1.5 3.7 1.5.2.3.3.6.4.9.1.3.1.9.1 1.7v2.8c0 .6 0 1 .1 1.2.1.2.2.4.5.6.3.2.7.3 1.3.4l-1 1.4c-.5 0-.9-.1-1.2-.2-.3-.1-.6-.2-.8-.3-.3-.2-.6-.5-.7-.8-.1-.5-.2-1-.2-1.7zm8.2 2.6h-3.6c.3-.2.5-.4.6-.5.1-.1.2-.3.2-.5v-8c0-.2-.1-.4-.2-.5-.1-.1-.3-.3-.6-.5h1.5c.6 0 1-.1 1.3-.4v1.8c.3-.5.7-1 1.1-1.2.4-.3 1-.4 1.5-.4.2 0 .5 0 .8.1v2c-.2-.2-.6-.4-1-.4s-.8.1-1.1.2c-.3.2-.6.4-.8.7-.3.4-.5 1.1-.5 2v3.6c0 .5 0 .8.1 1.1 0 .2.1.4.2.5.1 0 .3.2.5.4zm6.5-10.4v8.3c0 .5 0 .8.1 1.1 0 .2.1.4.2.5.1.1.3.3.6.5H225c.3-.2.5-.4.6-.5.1-.1.2-.3.2-.5v-8c0-.2-.1-.4-.2-.5-.1-.1-.3-.3-.6-.5h1.5c.6 0 1-.2 1.3-.4zm-1-3.7c.4 0 .7.1.9.4.3.3.4.6.4.9 0 .4-.1.7-.4 1-.3.3-.6.4-1 .4s-.7-.1-1-.4c-.3-.3-.4-.6-.4-1s.1-.7.4-1c.4-.1.7-.3 1.1-.3zm13.4 8.9h-8.1c0 .8.2 1.6.6 2.2s.9 1.1 1.5 1.4c.7.3 1.4.5 2.3.5.5 0 .9 0 1.3-.1s.8-.2 1.2-.4c.4-.2.8-.4 1.2-.7l-1.2 2.1c-.3.1-.7.2-1 .3-.3.1-.6.1-1 .2-.3 0-.7.1-1.1.1-1.2 0-2.3-.2-3.2-.7-1-.5-1.7-1.1-2.2-1.9-.5-.8-.8-1.7-.8-2.8 0-.5.1-1 .2-1.5s.4-1 .6-1.4c.3-.4.6-.8.9-1.1.5-.4 1-.7 1.6-.9.6-.2 1.3-.3 2-.3s1.4.1 2 .4c.6.2 1.1.6 1.6 1 .4.4.8.9 1 1.5.3.6.4 1.2.4 1.9v.2zm-8-1.4h5.7c-.3-1.6-1.2-2.4-2.8-2.4-.7 0-1.4.2-1.9.6-.5.4-.8 1-1 1.8zm16.6-3.4v1.9c-.9-.6-1.8-.8-2.7-.8-.6 0-1.1.1-1.5.3-.4.2-.6.5-.6.9 0 .2.1.4.2.6.1.2.4.3.7.5.3.1.8.3 1.4.5.8.3 1.4.5 1.8.7s.7.4.9.6c.6.5.9 1.2.9 1.9s-.2 1.3-.6 1.8c-.4.5-1 .9-1.7 1.2-.7.3-1.6.4-2.6.4-.6 0-1.1 0-1.5-.1-.4-.1-.9-.2-1.5-.4l-.8-2.2c.6.3 1.1.6 1.5.8.4.2.9.3 1.3.4.4.1.9.1 1.3.1.7 0 1.2-.1 1.7-.4.5-.3.7-.7.7-1.1 0-.4-.2-.8-.5-1-.3-.2-1-.5-2.1-.9-.9-.3-1.5-.6-2-.9-.5-.3-.8-.6-1-.9-.2-.3-.3-.7-.3-1.2 0-.6.2-1.1.5-1.6.3-.4.8-.8 1.5-1 .6-.2 1.4-.3 2.3-.3 1.2-.1 2 0 2.7.2z"/></g></svg>